<?xml version="1.0" encoding="utf-8"?>
<!-- Generator: Adobe Illustrator 16.0.0, SVG Export Plug-In . SVG Version: 6.00 Build 0)  -->
<!DOCTYPE svg PUBLIC "-//W3C//DTD SVG 1.1//EN" "http://www.w3.org/Graphics/SVG/1.1/DTD/svg11.dtd">
<svg version="1.1" id="Logo" xmlns="http://www.w3.org/2000/svg" xmlns:xlink="http://www.w3.org/1999/xlink" x="0px" y="0px"
	 width="811px" height="202px" viewBox="0 0 811 202" enable-background="new 0 0 811 202" xml:space="preserve">
<g>
	<path d="M7.741,148.55C6.784,147.997,6,146.642,6,145.542V55.454c0-1.102,0.784-2.455,1.741-3.008l79.02-45.031
		c0.958-0.553,2.525-0.553,3.483,0l79.016,45.035c0.958,0.553,1.741,1.907,1.741,3.008v90.088c0,1.1-0.783,2.453-1.741,3.008
		l-79.016,45.031c-0.958,0.553-2.525,0.553-3.483,0L7.741,148.55z"/>
	<g>
		<path d="M245.223,112.58v32.62c0,1.959-0.504,2.799-2.268,2.799h-7.687c-1.638,0-2.268-0.84-2.268-2.799v-89.6
			c0-1.96,0.63-2.8,2.268-2.8h25.58c21.673,0,28.604,10.08,28.604,21.56v16.66c0,11.479-6.93,21.56-28.604,21.56H245.223z
			 M245.223,64.42v36.54h15.625c11.341,0,16.381-4.62,16.381-12.18V76.6c0-7.56-5.04-12.18-16.381-12.18H245.223z"/>
		<path d="M317.887,110.34v34.86c0,1.959-0.505,2.799-2.269,2.799h-7.687c-1.638,0-2.268-0.84-2.268-2.799v-89.6
			c0-1.96,0.63-2.8,2.268-2.8h25.579c21.674,0,28.604,10.08,28.604,21.56v14.56c0,8.54-3.906,16.24-14.743,19.601l15.121,36.68
			c0.63,1.68-0.504,2.799-2.269,2.799h-7.561c-1.764,0-2.016-1.119-2.771-2.799l-14.239-34.86h-2.143H317.887z M317.887,64.42V98.72
			h15.624c11.341,0,16.382-4.479,16.382-12.18V76.6c0-7.56-5.041-12.18-16.382-12.18H317.887z"/>
		<path d="M380.877,73.24c0-11.48,7.448-21.56,30.19-21.56c22.875,0,30.323,10.08,30.323,21.56v54.319
			c0,11.48-7.448,21.561-30.323,21.561c-22.742,0-30.19-10.08-30.19-21.561V73.24z M428.356,75.48c0-7.56-5.319-12.18-17.289-12.18
			c-11.837,0-17.156,4.62-17.156,12.18v49.839c0,7.561,5.319,12.18,17.156,12.18c11.97,0,17.289-4.619,17.289-12.18V75.48z"/>
		<path d="M511.613,52.8c1.729,0,2.526,0.7,2.526,2.66v6.3c0,1.96-0.798,2.66-2.526,2.66h-21.279v80.78
			c0,1.959-0.665,2.799-2.395,2.799h-8.245c-1.729,0-2.395-0.84-2.395-2.799V64.42h-21.279c-1.861,0-2.526-0.7-2.526-2.66v-6.3
			c0-1.96,0.665-2.66,2.526-2.66H511.613z"/>
		<path d="M526.113,73.24c0-11.48,7.448-21.56,30.19-21.56c22.875,0,30.323,10.08,30.323,21.56v54.319
			c0,11.48-7.448,21.561-30.323,21.561c-22.742,0-30.19-10.08-30.19-21.561V73.24z M573.593,75.48c0-7.56-5.319-12.18-17.289-12.18
			c-11.837,0-17.156,4.62-17.156,12.18v49.839c0,7.561,5.319,12.18,17.156,12.18c11.97,0,17.289-4.619,17.289-12.18V75.48z"/>
		<path d="M663.61,145.339c0,1.82-0.504,2.66-2.269,2.66h-6.931c-1.26,0-1.764-0.42-2.268-1.26l-29.611-57.679
			c-2.772-5.18-4.284-9.52-4.537-10.08v66.358c0,1.82-0.63,2.66-2.268,2.66h-7.057c-1.638,0-2.268-0.84-2.268-2.66V55.46
			c0-1.82,0.63-2.66,2.268-2.66h7.057c1.008,0,1.638,0.42,2.016,1.12l30.368,58.94c1.764,3.359,3.906,8.959,3.906,8.959V55.46
			c0-1.82,0.756-2.66,2.394-2.66h6.931c1.765,0,2.269,0.84,2.269,2.66V145.339z"/>
		<path d="M685.278,147.999c-1.638,0-2.268-0.84-2.268-2.799v-89.6c0-1.96,0.63-2.8,2.268-2.8h43.095c1.638,0,2.394,0.7,2.394,2.66
			v6.3c0,1.96-0.756,2.66-2.394,2.66h-33.14V92.7h30.871c1.765,0,2.521,0.7,2.521,2.66v6.02c0,1.82-0.756,2.66-2.521,2.66h-30.871
			v32.34h34.525c1.639,0,2.395,0.561,2.395,2.52v6.439c0,1.961-0.756,2.66-2.395,2.66H685.278z"/>
		<path d="M801.605,52.8c1.639,0,2.395,0.7,2.395,2.66v6.3c0,1.96-0.756,2.66-2.395,2.66h-20.161v80.78
			c0,1.959-0.63,2.799-2.268,2.799h-7.812c-1.639,0-2.269-0.84-2.269-2.799V64.42h-20.161c-1.764,0-2.395-0.7-2.395-2.66v-6.3
			c0-1.96,0.631-2.66,2.395-2.66H801.605z"/>
	</g>
</g>
</svg>
